<?xml version="1.0" standalone="no"?><!DOCTYPE svg PUBLIC "-//W3C//DTD SVG 1.1//EN" "http://www.w3.org/Graphics/SVG/1.1/DTD/svg11.dtd"><svg t="1595599055890" class="icon" viewBox="0 0 1024 1024" version="1.1" xmlns="http://www.w3.org/2000/svg" p-id="4139" xmlns:xlink="http://www.w3.org/1999/xlink" width="200" height="200"><defs><style type="text/css"></style></defs><path d="M818.690133 314.496c139.989333-11.861333 186.666667 8.021333 200.32 61.44 20.906667 66.389333-24.106667 133.077333-128.725333 193.194667a392.618667 392.618667 0 0 1-721.621333 185.6H160.855467c-106.709333 0-143.616-32.426667-157.696-80.384-12.245333-47.872 8.832-97.28 103.509333-154.453334a392.618667 392.618667 0 0 1 712.021333-205.397333z m-708.693333 283.392c-36.565333 27.946667-30.293333 41.6-35.242667 56.021333 5.290667 10.069333 15.146667 23.296 56.32 26.282667a389.930667 389.930667 0 0 1-21.034666-82.304z m751.189333-206.848c12.8 30.72 21.845333 63.488 26.453334 97.578667 67.712-39.210667 60.458667-78.421333 61.056-85.162667-6.741333-6.741333-6.784-11.946667-87.466667-12.373333zM211.415467 546.858667c21.930667-2.261333 32.853333-21.632 29.141333-36.010667-2.986667-21.418667 1.024-42.154667 3.584-55.296 4.053333-20.736-7.850667-36.693333-28.544-40.746667-21.333333-4.138667-37.802667 6.997333-41.728 27.050667-3.882667 20.096-9.130667 47.061333-6.144 68.48 4.864 15.274667 16.085333 31.146667 29.866667 33.834667l13.824 2.688z m225.749333-299.178667a24.405333 24.405333 0 0 0-8.32-22.357333c-9.557333-8.96-24.917333-14.72-40.234667-9.6-63.957333 20.48-127.872 61.354667-156.586666 130.389333-7.082667 13.44 0 33.877333 21.077333 40.917333h14.08c14.677333 0 28.714667-7.04 35.754667-20.48 14.72-41.514667 56.874667-68.992 106.752-82.432 17.237333-5.12 24.917333-19.797333 27.477333-36.437333z" p-id="4140"></path></svg>