<?xml version="1.0" standalone="no"?><!DOCTYPE svg PUBLIC "-//W3C//DTD SVG 1.1//EN" "http://www.w3.org/Graphics/SVG/1.1/DTD/svg11.dtd"><svg t="1595599481894" class="icon" viewBox="0 0 1064 1024" version="1.1" xmlns="http://www.w3.org/2000/svg" p-id="10558" xmlns:xlink="http://www.w3.org/1999/xlink" width="207.8125" height="200"><defs><style type="text/css"></style></defs><path d="M794.998014 1024h-154.931442c-38.732861 0-70.20331-31.470449-70.20331-70.20331v-162.193853h-137.985815v162.193853c0 38.732861-31.470449 70.20331-70.20331 70.20331H209.163499C170.430638 1024 138.960189 992.529551 138.960189 953.79669V534.997636h-67.782506c-38.732861 0-70.20331-31.470449-70.203309-70.20331 0-19.36643 9.683215-38.732861 24.208037-53.257683 159.77305-133.144208 459.952719-394.591017 462.373523-397.01182l14.524823-14.524823 16.945626 14.524823c2.420804 2.420804 305.021277 263.867612 462.373522 397.01182 16.945626 12.104019 26.628842 33.891253 26.628842 53.257683 0 38.732861-31.470449 70.20331-70.20331 70.20331h-67.782506v418.799054c-2.420804 38.732861-36.312057 70.20331-75.044917 70.20331zM385.882175 743.186761h234.817967v210.609929c0 12.104019 9.683215 21.787234 21.787234 21.787234h154.931442c12.104019 0 21.787234-9.683215 21.787234-21.787234V486.58156h116.198582c12.104019 0 21.787234-9.683215 21.787234-21.787234 0-9.683215-4.841608-14.524823-9.683216-16.945626C811.943641 331.650118 567.442459 118.619385 502.080757 62.940898 436.719054 118.619385 192.217872 331.650118 54.232057 447.8487c-2.420804 2.420804-7.262411 9.683215-7.262412 16.945626 0 12.104019 9.683215 21.787234 21.787234 21.787234h116.198582v467.21513c0 12.104019 9.683215 21.787234 21.787234 21.787234h154.931442c12.104019 0 21.787234-9.683215 21.787234-21.787234v-210.609929z" fill="" p-id="10559"></path></svg>