<?xml version="1.0" standalone="no"?><!DOCTYPE svg PUBLIC "-//W3C//DTD SVG 1.1//EN" "http://www.w3.org/Graphics/SVG/1.1/DTD/svg11.dtd"><svg t="1595602800493" class="icon" viewBox="0 0 1024 1024" version="1.1" xmlns="http://www.w3.org/2000/svg" p-id="11963" xmlns:xlink="http://www.w3.org/1999/xlink" width="200" height="200"><defs><style type="text/css"></style></defs><path d="M903.502196 1024H120.51456c-33.559273 0-65.861818-15.965091-88.576-43.799273-21.876364-26.414545-33.396364-62.231273-31.790545-98.909091L38.734196 128.791273C41.945833 56.762182 94.821469 0 159.007651 0h706.839273c64.512 0 117.364364 56.925091 120.366545 129.489455l37.632 751.592727c1.629091 36.701091-9.844364 72.564364-31.720727 99.025454-23.179636 28.113455-55.202909 43.962182-88.622546 43.892364zM159.007651 85.341091c-25.274182 0-46.08 21.201455-47.266909 48.244364L73.15456 885.922909a52.759273 52.759273 0 0 0 11.799273 35.421091c9.076364 11.170909 21.690182 17.314909 35.560727 17.314909h782.987636c13.405091 0.116364 26.298182-6.167273 35.630546-17.361454 7.936-9.495273 12.171636-22.341818 11.729454-35.607273L913.206924 134.144c-1.140364-27.531636-21.922909-48.779636-47.36-48.779636H159.007651z" fill="#2c2c2c" p-id="11964"></path><path d="M511.915287 470.481455c-113.454545-0.232727-219.857455-66.792727-285.858909-178.85091-11.52-19.968-7.610182-47.476364 8.727273-61.649454 16.337455-14.149818 39.028364-9.681455 50.850909 10.030545 52.224 88.715636 136.471273 141.451636 226.280727 141.637819 89.320727 0 173.917091-52.968727 226.350546-141.73091 11.776-19.921455 34.629818-24.482909 51.060363-10.170181 16.407273 14.289455 20.177455 42.053818 8.378182 61.975272-66.094545 111.918545-172.962909 178.757818-285.789091 178.757819z" fill="#2c2c2c" p-id="11965"></path></svg>